# File created by Blade
# Date/Time:  Wed Sep 24 19:10:19 2014
# Frame Rate: 120.000 fps
#------------------------------------------------------
:FULLY-SPECIFIED
:DEGREES
2942
root -8.470737 34.187980 -3.565524 34.421081 17.955498 32.437832
Spine -12.091170 -0.811844 -15.818944
Head -5.760592 22.422238 -6.814420
LeftShoulder -4.955456 9.261940 10.599657
LeftArm 35.158584 -4.149247 -80.452216
LeftForeArm 10.083330 0.000000 82.209175
LeftHand -27.598030 -0.000000 28.694177
LeftHandThumb1 -26.253704 0.000000 33.147579
RightShoulder -14.008755 11.854656 -23.808384
RightArm -13.958445 -20.600423 75.062100
RightForeArm -21.647104 -0.000000 32.338418
RightHand -4.657702 -0.000000 10.157933
RightHandThumb1 -24.326973 -0.000000 -32.862282
LeftUpLeg -28.022394 0.444327 27.819024
LeftLeg 111.512348 -0.000000 -0.000000
LeftFoot 35.472792 12.286775 -16.351045
LeftToeBase 7.605048 -0.000000 -0.000000
RightUpLeg -30.635322 -20.420516 -16.831491
RightLeg 20.635983 -0.000000 -0.000000
RightFoot -12.912490 -24.388404 -4.143622
RightToeBase -1.154497 -0.000000 0.000000
2943
root -8.474588 34.184471 -3.574396 34.419739 17.991488 32.212696
Spine -12.145187 -0.833914 -15.597609
Head -5.770002 22.481270 -6.649386
LeftShoulder -4.886537 9.284309 10.644304
LeftArm 35.104124 -4.215315 -80.509499
LeftForeArm 10.054634 0.000000 82.336601
LeftHand -27.609621 -0.000000 28.643321
LeftHandThumb1 -26.253704 0.000000 33.147579
RightShoulder -14.005926 11.846990 -23.764866
RightArm -13.922446 -20.520652 75.007623
RightForeArm -21.705180 -0.000000 32.364881
RightHand -4.655374 0.000000 10.137367
RightHandThumb1 -24.326973 -0.000000 -32.862282
LeftUpLeg -28.274101 0.404009 28.070124
LeftLeg 111.661467 -0.000000 -0.000000
LeftFoot 35.412742 12.438923 -16.072878
LeftToeBase 7.667514 -0.000000 -0.000000
RightUpLeg -30.703027 -20.520056 -16.512622
RightLeg 20.467127 -0.000000 -0.000000
RightFoot -12.918487 -24.187270 -4.087733
RightToeBase -1.092771 -0.000000 0.000000
2944
root -8.485717 34.179510 -3.583641 34.424444 18.107360 31.954176
Spine -12.172290 -0.886094 -15.308159
Head -5.834217 22.479276 -6.460165
LeftShoulder -4.789746 9.303354 10.714209
LeftArm 35.041659 -4.273313 -80.582874
LeftForeArm 9.979839 -0.000000 82.482510
LeftHand -27.507092 -0.000000 28.636390
LeftHandThumb1 -26.253704 0.000000 33.147579
RightShoulder -14.078940 11.824375 -23.731269
RightArm -13.805759 -20.468996 74.932837
RightForeArm -21.754348 -0.000000 32.324585
RightHand -4.589315 0.000000 10.283000
RightHandThumb1 -24.326973 -0.000000 -32.862282
LeftUpLeg -28.632460 0.719661 28.336416
LeftLeg 111.761376 -0.000000 -0.000000
LeftFoot 35.377514 12.497438 -15.824860
LeftToeBase 7.667380 -0.000000 -0.000000
RightUpLeg -30.752300 -20.577961 -16.151233
RightLeg 20.316055 -0.000000 -0.000000
RightFoot -12.861144 -24.159724 -4.123303
RightToeBase -1.110683 -0.000000 0.000000
2945
root -8.505103 34.172631 -3.590962 34.426798 18.352230 31.676221
Spine -12.160808 -1.032512 -14.929746
Head -5.925702 22.454492 -6.217441
LeftShoulder -4.712857 9.352115 10.782150
LeftArm 35.031608 -4.304684 -80.669836
LeftForeArm 9.939165 -0.000000 82.607585
LeftHand -27.407788 -0.000000 28.599038
LeftHandThumb1 -26.253704 0.000000 33.147579
RightShoulder -14.160365 11.806525 -23.654117
RightArm -13.769661 -20.486994 74.830358
RightForeArm -21.658396 -0.000000 32.479967
RightHand -4.635959 -0.000000 10.141855
RightHandThumb1 -24.326973 -0.000000 -32.862282
LeftUpLeg -29.122996 1.345579 28.631567
LeftLeg 111.799797 -0.000000 -0.000000
LeftFoot 35.488126 12.416384 -15.667350
LeftToeBase 7.541469 -0.000000 -0.000000
RightUpLeg -30.754812 -20.702313 -15.699578
RightLeg 20.106933 -0.000000 -0.000000
RightFoot -12.814574 -24.063452 -4.091675
RightToeBase -1.113679 -0.000000 0.000000
2946
root -8.528498 34.165105 -3.598856 34.440552 18.753800 31.414876
Spine -12.107040 -1.305946 -14.453429
Head -6.026341 22.430540 -5.976426
LeftShoulder -4.611612 9.399116 10.869698
LeftArm 34.994120 -4.341093 -80.815658
LeftForeArm 9.926923 0.000000 82.754915
LeftHand -27.370840 -0.000000 28.729257
LeftHandThumb1 -26.253704 0.000000 33.147579
RightShoulder -14.237455 11.778986 -23.571898
RightArm -13.694361 -20.456944 74.660386
RightForeArm -21.572800 -0.000000 32.619098
RightHand -4.565848 -0.000000 10.190959
RightHandThumb1 -24.326973 -0.000000 -32.862282
LeftUpLeg -29.771647 2.260742 28.906571
LeftLeg 111.832167 -0.000000 -0.000000
LeftFoot 35.447427 12.329517 -15.750282
LeftToeBase 7.846376 -0.000000 -0.000000
RightUpLeg -30.670668 -20.715010 -15.294651
RightLeg 19.922893 -0.000000 -0.000000
RightFoot -12.795185 -24.174349 -3.945699
RightToeBase -1.026788 -0.000000 0.000000
2947
root -8.558307 34.159226 -3.611063 34.497717 19.220176 31.172499
Spine -12.050716 -1.637360 -13.963912
Head -6.177224 22.404274 -5.735010
LeftShoulder -4.466527 9.424139 11.010844
LeftArm 34.929679 -4.405599 -81.014025
LeftForeArm 9.907973 -0.000000 82.910823
LeftHand -27.316180 0.000000 28.785470
LeftHandThumb1 -26.253704 0.000000 33.147579
RightShoulder -14.297122 11.757687 -23.508776
RightArm -13.692892 -20.335224 74.537988
RightForeArm -21.644651 -0.000000 32.795521
RightHand -4.552460 0.000000 10.198024
RightHandThumb1 -24.326973 -0.000000 -32.862282
LeftUpLeg -30.604492 3.512298 29.066846
LeftLeg 111.785188 -0.000000 -0.000000
LeftFoot 35.517164 12.510558 -16.140707
LeftToeBase 7.906181 -0.000000 -0.000000
RightUpLeg -30.633403 -20.833259 -14.837764
RightLeg 19.751849 -0.000000 -0.000000
RightFoot -12.739650 -24.253331 -3.834713
RightToeBase -1.025560 -0.000000 0.000000
2948
root -8.595029 34.150433 -3.620665 34.514088 19.840700 30.935855
Spine -11.879656 -2.043807 -13.387875
Head -6.405413 22.335098 -5.545386
LeftShoulder -4.290050 9.334823 11.190337
LeftArm 34.785598 -4.427714 -81.237690
LeftForeArm 9.931909 0.000000 83.047201
LeftHand -27.210816 0.000000 28.555370
LeftHandThumb1 -26.253704 0.000000 33.147579
RightShoulder -14.420304 11.743365 -23.450905
RightArm -13.676809 -20.190108 74.391614
RightForeArm -21.717536 -0.000000 32.975325
RightHand -4.561058 -0.000000 10.040647
RightHandThumb1 -24.326973 -0.000000 -32.862282
LeftUpLeg -31.552730 5.029930 29.183883
LeftLeg 111.691726 -0.000000 -0.000000
LeftFoot 35.492745 12.646182 -16.487950
LeftToeBase 8.269453 -0.000000 -0.000000
RightUpLeg -30.490821 -20.953732 -14.358913
RightLeg 19.576891 -0.000000 -0.000000
RightFoot -12.676080 -24.447264 -3.694511
RightToeBase -1.024976 -0.000000 0.000000
2949
root -8.632646 34.142657 -3.636293 34.567223 20.550431 30.751904
Spine -11.683851 -2.525970 -12.780553
Head -6.676013 22.202324 -5.362033
LeftShoulder -4.065411 9.249102 11.400080
LeftArm 34.660662 -4.483421 -81.499899
LeftForeArm 9.905666 -0.000000 83.162394
LeftHand -27.042883 -0.000000 28.517682
LeftHandThumb1 -26.253704 0.000000 33.147579
RightShoulder -14.517934 11.709185 -23.429355
RightArm -13.685632 -19.862264 74.245367
RightForeArm -21.846335 -0.000000 33.196908
RightHand -4.582141 -0.000000 10.027021
RightHandThumb1 -24.326973 -0.000000 -32.862282
LeftUpLeg -32.686212 6.818853 29.113001
LeftLeg 111.568309 -0.000000 -0.000000
LeftFoot 35.445542 12.829613 -16.907100
LeftToeBase 8.206808 -0.000000 -0.000000
RightUpLeg -30.347469 -21.104638 -13.905358
RightLeg 19.421106 -0.000000 -0.000000
RightFoot -12.605762 -24.726449 -3.584452
RightToeBase -0.974169 -0.000000 0.000000
2950
root -8.672808 34.133837 -3.651179 34.569584 21.345644 30.591489
Spine -11.359726 -3.058502 -12.150832
Head -7.032029 22.094552 -5.213335
LeftShoulder -3.813462 9.059300 11.636431
LeftArm 34.494306 -4.558202 -81.809795
LeftForeArm 9.799214 -0.000000 83.281662
LeftHand -26.947616 -0.000000 28.890892
LeftHandThumb1 -26.253704 0.000000 33.147579
RightShoulder -14.619889 11.711221 -23.375413
RightArm -13.741678 -19.534713 74.065080
RightForeArm -21.885270 -0.000000 33.469931
RightHand -4.599201 0.000000 10.012408
RightHandThumb1 -24.326973 -0.000000 -32.862282
LeftUpLeg -33.924567 8.874916 28.864742
LeftLeg 111.401880 -0.000000 -0.000000
LeftFoot 35.343426 13.084878 -17.232114
LeftToeBase 8.185686 -0.000000 -0.000000
RightUpLeg -30.102551 -21.171330 -13.509092
RightLeg 19.279593 -0.000000 -0.000000
RightFoot -12.542949 -25.118878 -3.386808
RightToeBase -0.989623 -0.000000 0.000000
2951
root -8.714599 34.124388 -3.669510 34.622366 22.241882 30.519732
Spine -11.005720 -3.662156 -11.531055
Head -7.441912 21.955834 -5.115942
LeftShoulder -3.473430 8.709053 11.904490
LeftArm 34.189471 -4.643716 -82.091338
LeftForeArm 9.709973 0.000000 83.404490
LeftHand -26.992049 -0.000000 29.237339
LeftHandThumb1 -26.253704 0.000000 33.147579
RightShoulder -14.771377 11.654817 -23.338867
RightArm -13.826053 -19.168059 73.899229
RightForeArm -21.891759 -0.000000 33.842128
RightHand -4.661546 -0.000000 9.868048
RightHandThumb1 -24.326973 -0.000000 -32.862282
LeftUpLeg -35.348182 11.046766 28.379343
LeftLeg 111.185452 -0.000000 -0.000000
LeftFoot 34.978165 13.600344 -18.140262
LeftToeBase 8.720639 -0.000000 -0.000000
RightUpLeg -29.848136 -21.254121 -13.177848
RightLeg 19.185082 -0.000000 -0.000000
RightFoot -12.502005 -25.625194 -3.180037
RightToeBase -0.921603 -0.000000 0.000000
2952
root -8.757611 34.111843 -3.688732 34.660602 23.257812 30.507030
Spine -10.564191 -4.322762 -10.888458
Head -7.888159 21.736013 -5.027299
LeftShoulder -3.080131 8.441793 12.180877
LeftArm 34.036626 -4.753641 -82.415074
LeftForeArm 9.736209 -0.000000 83.456191
LeftHand -26.907538 -0.000000 29.133611
LeftHandThumb1 -26.253704 0.000000 33.147579
RightShoulder -14.937832 11.630364 -23.327690
RightArm -13.937254 -18.757081 73.726533
RightForeArm -21.946063 0.000000 34.121011
RightHand -4.676166 -0.000000 9.836098
RightHandThumb1 -24.326973 -0.000000 -32.862282
LeftUpLeg -36.941964 13.332559 27.644046
LeftLeg 110.908850 -0.000000 -0.000000
LeftFoot 34.947026 13.814035 -18.523295
LeftToeBase 8.536949 -0.000000 -0.000000
RightUpLeg -29.510360 -21.237216 -12.931970
RightLeg 19.146583 -0.000000 -0.000000
RightFoot -12.536818 -26.329751 -2.821227
RightToeBase -0.851792 -0.000000 0.000000
2953
root -8.799514 34.097641 -3.709457 34.698064 24.275807 30.539829
Spine -10.078414 -4.985739 -10.297004
Head -8.348484 21.523519 -4.905737
LeftShoulder -2.630735 8.116991 12.466949
LeftArm 33.875872 -4.932213 -82.712760
LeftForeArm 9.639347 -0.000000 83.470359
LeftHand -26.695980 -0.000000 29.239542
LeftHandThumb1 -26.253704 0.000000 33.147579
RightShoulder -15.086107 11.633120 -23.273203
RightArm -14.103318 -18.330278 73.532307
RightForeArm -21.877440 0.000000 34.425206
RightHand -4.663558 -0.000000 9.649867
RightHandThumb1 -24.326973 -0.000000 -32.862282
LeftUpLeg -38.650030 15.738179 26.613875
LeftLeg 110.571319 -0.000000 -0.000000
LeftFoot 34.768353 14.214136 -19.287562
LeftToeBase 8.834744 -0.000000 -0.000000
RightUpLeg -29.144611 -21.032305 -12.806066
RightLeg 19.155447 -0.000000 -0.000000
RightFoot -12.558781 -27.234405 -2.457839
RightToeBase -0.734487 -0.000000 0.000000
2954
root -8.842754 34.074007 -3.722214 34.655399 25.346406 30.502396
Spine -9.553139 -5.581356 -9.607125
Head -8.785488 21.257240 -4.796932
LeftShoulder -2.136141 7.742692 12.729249
LeftArm 33.708040 -5.116690 -83.010623
LeftForeArm 9.403034 0.000000 83.475615
LeftHand -26.418662 -0.000000 29.491596
LeftHandThumb1 -26.253704 0.000000 33.147579
RightShoulder -15.271654 11.561867 -23.265889
RightArm -14.216258 -17.881377 73.332820
RightForeArm -21.888213 -0.000000 34.645290
RightHand -4.659577 -0.000000 9.632695
RightHandThumb1 -24.326973 -0.000000 -32.862282
LeftUpLeg -40.427500 18.315827 25.442432
LeftLeg 110.250466 -0.000000 -0.000000
LeftFoot 34.697417 14.194697 -19.476349
LeftToeBase 8.672473 -0.000000 -0.000000
RightUpLeg -28.754160 -20.879493 -12.569679
RightLeg 19.204312 -0.000000 -0.000000
RightFoot -12.610323 -28.143102 -2.172001
RightToeBase -0.650330 -0.000000 0.000000
